<?xml version="1.0"?><svg data-name="Layer 2" id="Layer_2" viewBox="0 0 250 250" xmlns="http://www.w3.org/2000/svg"><title/><path d="M227.08,113.09a32.26,32.26,0,0,0,1.61-9.37,30.45,30.45,0,0,0-5.42-18.8,30.59,30.59,0,0,0-.37-15.67,29.09,29.09,0,0,0-7-12.85c.54-10-1.9-18.36-7.28-24.76-6.21-7.38-15.75-11.21-28.4-11.4H163.15a101.93,101.93,0,0,0-19.66,2.11c-7,1.39-12.49,2.71-16.4,3.92s-9,2.89-16.07,5.27C97.92,36.12,92.9,37.15,91,37.2A11.75,11.75,0,0,0,83,40.64a10.87,10.87,0,0,0-3.42,8v84.93a11,11,0,0,0,3.23,7.86,11.66,11.66,0,0,0,7.6,3.61c.08,0,2.1.28,8.1,6.85,4.51,4.95,9,10.28,13.24,15.86A193.4,193.4,0,0,0,125.39,184a17.42,17.42,0,0,1,3.48,5.44,40.64,40.64,0,0,1,2.16,5.94c.37,1.53.95,4.1,1.76,7.88.62,3.46,1.19,6.23,1.69,8.24a42,42,0,0,0,2.77,7.43,26.15,26.15,0,0,0,5.11,7.47,11.05,11.05,0,0,0,8.08,3.4,42.66,42.66,0,0,0,11.76-1.51,32.11,32.11,0,0,0,8.78-3.82,21.58,21.58,0,0,0,6.15-6.22,34,34,0,0,0,3.49-6.56,37.15,37.15,0,0,0,1.75-7.24,60.83,60.83,0,0,0,.69-6.31c0-1.44.07-3.21.07-5.26a44.75,44.75,0,0,0-1.35-10.8,58,58,0,0,0-2.67-8.41c-.87-2-2.13-4.57-3.72-7.57-.28-.57-.73-1.38-1.41-2.55-.33-.57-.62-1.1-.85-1.59h32.44A28.77,28.77,0,0,0,234,133.48,32.14,32.14,0,0,0,227.08,113.09Zm-5.75,36.16a21.36,21.36,0,0,1-15.76,6.67h-36.7a3,3,0,0,0-2.89,3.83c.38,1.32.77,2.49,1.16,3.46a24.74,24.74,0,0,0,1.65,3.31c.6,1,1,1.78,1.26,2.29,1.55,2.92,2.75,5.35,3.55,7.2A51.66,51.66,0,0,1,176,183.5a38.74,38.74,0,0,1,1.17,9.34c0,2,0,3.7-.07,5.08a56,56,0,0,1-.63,5.6,31.08,31.08,0,0,1-1.43,6,28,28,0,0,1-2.88,5.37,15.44,15.44,0,0,1-4.45,4.51,26.12,26.12,0,0,1-7.12,3.07,37,37,0,0,1-10.11,1.27,5.15,5.15,0,0,1-3.84-1.64,20.09,20.09,0,0,1-3.91-5.77A37,37,0,0,1,140.3,210c-.47-1.88-1-4.53-1.61-7.88a.44.44,0,0,1,0-.1c-.85-3.92-1.42-6.5-1.81-8.1a45.52,45.52,0,0,0-2.48-6.91,23.41,23.41,0,0,0-4.74-7.29,192.33,192.33,0,0,1-13.13-15.6c-4.36-5.7-8.92-11.16-13.54-16.23-5.32-5.82-9-8.53-12-8.79a5.7,5.7,0,0,1-3.79-1.82,5,5,0,0,1-1.53-3.67V48.68a5,5,0,0,1,1.61-3.75,5.73,5.73,0,0,1,4-1.73c2.2-.06,6.85-.75,21.81-6,7-2.35,12.18-4.05,15.9-5.21s9-2.42,15.79-3.76a95.5,95.5,0,0,1,18.49-2h17C191,26.4,199,29.52,204.05,35.5c4.64,5.52,6.53,12.66,5.8,21.82a3,3,0,0,0,.93,2.41,23,23,0,0,1,6.32,11.09,24.34,24.34,0,0,1,0,13.82,3,3,0,0,0,.48,2.68,24.34,24.34,0,0,1,5.09,16.22v.13a28.74,28.74,0,0,1-1.82,9.1,3,3,0,0,0,.58,2.94A25.9,25.9,0,0,1,228,133.48,21.41,21.41,0,0,1,221.33,149.25ZM65.64,37.2H27.48a11.08,11.08,0,0,0-8.08,3.39A11.09,11.09,0,0,0,16,48.68v84.8a11.05,11.05,0,0,0,3.4,8.08,11.05,11.05,0,0,0,8.08,3.4H65.64a11.05,11.05,0,0,0,8.08-3.4h0a11.05,11.05,0,0,0,3.4-8.08V48.68A11.59,11.59,0,0,0,65.64,37.2Zm5.48,96.28A5.6,5.6,0,0,1,65.64,139H27.48A5.6,5.6,0,0,1,22,133.48V48.68a5.12,5.12,0,0,1,1.64-3.84,5.15,5.15,0,0,1,3.84-1.64H65.64a5.59,5.59,0,0,1,5.48,5.48ZM44.44,54.16a11.48,11.48,0,0,0-8.18,19.53,11.38,11.38,0,0,0,16.26,0,11.4,11.4,0,0,0,0-16.26A11.24,11.24,0,0,0,44.44,54.16Zm3.84,15.32a5.15,5.15,0,0,1-3.84,1.64,5.08,5.08,0,0,1-3.88-1.61A5.26,5.26,0,0,1,39,65.64a5.36,5.36,0,0,1,5.48-5.48,5.26,5.26,0,0,1,3.87,1.6,5.08,5.08,0,0,1,1.61,3.88A5.15,5.15,0,0,1,48.28,69.48Z"/></svg>