<?xml version="1.0"?><svg fill="none" height="24" viewBox="0 0 24 24" width="24" xmlns="http://www.w3.org/2000/svg"><path clip-rule="evenodd" d="M4 2C4 1.44772 4.44772 1 5 1H12C12.5523 1 13 1.44772 13 2V8H19C19.5523 8 20 8.44772 20 9V22C20 22.5523 19.5523 23 19 23H5C4.44772 23 4 22.5523 4 22V2ZM6 3V21H18V10H12C11.4477 10 11 9.55228 11 9V3H6Z" fill="black" fill-rule="evenodd"/><path clip-rule="evenodd" d="M11 2C11 1.44772 11.4477 1 12 1H15C15.5523 1 16 1.44772 16 2V3H17C17.5523 3 18 3.44772 18 4V5H19C19.5523 5 20 5.44772 20 6V9C20 9.55228 19.5523 10 19 10H12C11.4477 10 11 9.55228 11 9V2ZM14 3H13V8H18V7H17C16.4477 7 16 6.55228 16 6V5H15C14.4477 5 14 4.55228 14 4V3Z" fill="black" fill-rule="evenodd"/></svg>