<?xml version="1.0"?><svg xmlns="http://www.w3.org/2000/svg" xmlns:xlink="http://www.w3.org/1999/xlink" version="1.1" viewBox="0 0 512 512" style="enable-background:new 0 0 512 512;" xml:space="preserve"><g id="_x31_7_x2C__theatre_x2C__theatre_mask_x2C__masks_x2C__class_x2C__theater_x2C__comedy"><g><g><path d="M42.638,221.436l-20.42-87.936c-5.845-25.166,9.041-50.964,33.892-58.733c14.535-4.549,29.344-8.926,44.013-13.01     c5.3-1.476,8.4-6.968,6.924-12.267c-1.476-5.3-6.968-8.403-12.268-6.925c-14.871,4.141-29.884,8.578-44.617,13.188     C15.22,66.678-5.443,102.458,2.813,138.006l20.42,87.936c9.519,40.971,29.414,79.186,57.533,110.513     c3.675,4.093,9.973,4.434,14.066,0.759c4.094-3.674,4.434-9.972,0.759-14.066C69.71,294.314,51.399,259.141,42.638,221.436z"/><path d="M153.285,253.823c-3.421-1.161-7.208-0.378-9.888,2.048c-2.68,2.427-3.836,6.115-3.017,9.637     c10.172,43.811,54.885,70.824,99.226,58.925c40.583-10.891,66.695-52.394,56.848-94.803c-0.816-3.516-3.47-6.315-6.938-7.317     c-3.467-1-7.206-0.05-9.771,2.489c-7.339,7.263-27.795,24.967-59.146,32.495C187.156,265.323,161.663,256.669,153.285,253.823z      M278.457,251.892c-1.796,25.011-19.692,47.762-46.495,53.915c-24.5,5.628-51.305-4.419-65.209-27.832     C206.858,285.702,246.631,275.162,278.457,251.892z"/><path d="M134.946,169.667c3.777,4,10.081,4.178,14.081,0.403c3.999-3.777,4.18-10.082,0.402-14.081     c-12.402-13.132-30.893-18.721-48.262-14.582c-22.374,5.329-33.871,24.665-36.824,34.145c-1.636,5.253,1.281,10.882,6.533,12.518     c5.228,1.63,10.815-1.227,12.458-6.502c0.056-0.167,5.831-16.825,22.45-20.783C116.4,158.254,127.304,161.576,134.946,169.667z"/><path d="M259.05,141.232c0.056-0.168,5.833-16.826,22.45-20.784c10.62-2.529,21.521,0.791,29.162,8.881     c3.778,4,10.081,4.18,14.081,0.402c3.999-3.777,4.179-10.082,0.402-14.081c-12.402-13.131-30.897-18.717-48.262-14.581     c-22.367,5.327-33.868,24.662-36.823,34.142c-1.638,5.252,1.278,10.881,6.53,12.519     C251.831,149.364,257.409,146.494,259.05,141.232z"/><path d="M451.139,128.171c-23.616-3.494-47.918-6.48-72.343-8.905l-14.908-64.199c-8.225-35.413-42.46-58.675-78.77-53.258     c-51.226,7.659-103.32,18.262-151.59,30.476c-5.333,1.349-8.563,6.767-7.213,12.1c1.35,5.335,6.767,8.562,12.1,7.213     c47.564-12.036,99.017-22.516,149.644-30.086c25.794-3.842,50.575,12.875,56.424,38.062l20.419,87.935     c19.315,83.2-8.916,169.762-73.652,225.87c-23.53,20.355-54.76,26.497-82.788,18.998c-30.978-8.29-59.876-22.802-85.132-43.018     c-4.294-3.439-10.563-2.745-14.001,1.552c-3.438,4.295-2.743,10.563,1.552,14.001c15.529,12.431,32.264,22.863,50.04,31.227     c20.717,41.139,52.3,75.719,91.536,100.159c22.506,14.017,62.541,20.794,102.478,7.543     c37.905-12.596,72.616-40.679,103.17-83.472c3.197-4.477,2.159-10.697-2.318-13.895c-4.478-3.197-10.698-2.158-13.895,2.319     c-28.052,39.286-59.422,64.905-93.236,76.141c-49.509,16.433-85.311-5.324-85.667-5.546     c-29.351-18.282-54.046-42.727-72.507-71.561c4.229,1.371,8.505,2.638,12.829,3.795c21.28,5.694,44.205,5.021,65.714-2.634     c14.063,9.882,30.336,14.488,45.484,14.488c11.411,0,33.488-2.534,53.132-19.51c23.285-20.131,26.834-46.893,27.367-54.617     c0.249-3.602-1.471-7.056-4.496-9.029c-3.025-1.973-6.879-2.154-10.076-0.474c-5.864,3.081-20.94,10.991-42.745,13.499     c24.483-31.253,40.976-67.591,48.481-105.95c7.454-4.678,18.036-7.474,26.52-6.819c17.043,1.325,25.383,16.89,25.426,16.97     c1.741,3.5,5.265,5.526,8.926,5.526c7.306,0,12.227-7.731,8.911-14.4c-0.522-1.05-13.118-25.735-41.722-27.958     c-7.877-0.616-16.541,0.64-24.629,3.315c4.6-46.678-5.649-81.599-6.049-84.254c21.838,2.265,43.533,4.979,64.667,8.105     c25.772,3.807,44.541,26.982,42.729,52.758l-6.336,90.039c-2.095,29.843-9.858,58.563-23.073,85.362     c-2.433,4.935-0.406,10.906,4.529,13.339c4.923,2.428,10.901,0.416,13.339-4.528c14.364-29.129,22.801-60.344,25.079-92.777     l6.335-90.038C513.383,165.677,487.375,133.525,451.139,128.171z M370.896,365.911c-13.076,32.748-50.322,45.707-80.169,32.562     c10.536-6.614,20.18-15.558,28.913-24.502C340.939,374.663,358.384,370.439,370.896,365.911z"/></g></g></g><g id="Layer_1"/></svg>