<?xml version="1.0"?><svg id="Layer_1" style="enable-background:new 0 0 96 96;" version="1.1" viewBox="0 0 96 96" xml:space="preserve" xmlns="http://www.w3.org/2000/svg" xmlns:xlink="http://www.w3.org/1999/xlink"><path d="M42,57.9c0-3.3-2.7-6-6-6c-3.3,0-6,2.7-6,6c0,3.3,2.7,6,6,6C39.4,63.9,42,61.2,42,57.9z M34,57.9c0-1.1,0.9-2,2-2  c1.1,0,2,0.9,2,2c0,1.1-0.9,2-2,2C34.9,59.9,34,59,34,57.9z M61.8,70.1c0.6,0.9,0.3,2.2-0.6,2.8c-1,0.6-2,1.2-3.1,1.6  c-3.3,1.5-6.9,2.2-10.5,2.2c-3.5,0-7-0.7-10.3-2.1c-1.1-0.5-2.3-1.1-3.3-1.7c-0.9-0.6-1.2-1.8-0.6-2.8c0.6-0.9,1.8-1.2,2.8-0.6  c0.9,0.6,1.8,1,2.8,1.4c0.2,0.1,0.4,0.2,0.6,0.3c2.6,1,5.3,1.5,8.1,1.5c2.8,0,5.5-0.5,8.1-1.5c0.3-0.1,0.5-0.2,0.8-0.3  c0.9-0.4,1.8-0.9,2.6-1.4C60,68.9,61.2,69.2,61.8,70.1z M77.3,43.1c-2.1,0-4.2,0.7-5.9,1.9c-6.2-3.7-13.9-5.6-20.5-6.1L54.6,26  L66,27.9c0,4.4,3.6,8,8,8c3.7,0,6.8-2.5,7.7-6h0.3v-2v-2h-0.3c-0.9-3.4-4-6-7.7-6c-3,0-5.6,1.6-6.9,4.1l-13.4-2.2  c-1-0.2-2,0.4-2.2,1.4l-4.6,15.6c-7.2,0.1-16.2,2.1-23.2,6.3c-1.7-1.3-3.8-1.9-5.9-1.9c-5.2,0-9.7,4.1-9.7,9.4c0,3.4,1.9,6.4,4.8,8  c-0.1,0.5-0.1,1.1-0.1,1.6c0,1.1,0.1,2.2,0.3,3.2c2.9,14.4,22,20.1,34.7,20.1s31.7-5.7,34.7-20.1c0.1-0.4,0.1-0.8,0.2-1.2h0.1v-2  v-1.8c2.7-1.7,4.5-4.6,4.5-7.9C87,47.2,82.5,43.1,77.3,43.1z M70.1,26.9c0-0.1,0.1-0.2,0.1-0.3c0.5-1.6,2-2.7,3.8-2.7  c2.2,0,4,1.8,4,4c0,2.2-1.8,4-4,4c-2.2,0-4-1.8-4-4C70,27.6,70,27.2,70.1,26.9z M11.8,52.5c0-3.1,2.7-5.4,5.7-5.4  c0.8,0,1.6,0.2,2.4,0.5c-2.9,2.4-5.1,5.3-6.4,8.7C12.5,55.3,11.8,54,11.8,52.5z M78.2,64.5c-2.5,12.3-20.1,16.9-30.7,16.9  c-10.6,0-28.3-4.7-30.7-16.9c-0.2-0.8-0.2-1.6-0.2-2.4c0-0.8,0.1-1.6,0.2-2.4c2.5-12.2,20.1-16.9,30.7-16.9c6.6,0,15.9,1.8,22.6,6.1  l0.1,0.1c0.2,0.2,0.4,0.3,0.7,0.4c3.7,2.6,6.5,6,7.4,10.3c0.2,0.8,0.3,1.6,0.3,2.4C78.5,62.9,78.4,63.7,78.2,64.5z M81.4,56.2  c-1.3-3.4-3.5-6.3-6.4-8.6c0.7-0.3,1.5-0.4,2.2-0.4c3,0,5.7,2.3,5.7,5.4C83,53.9,82.4,55.2,81.4,56.2z M48,0C21.5,0,0,21.5,0,48  c0,26.5,21.5,48,48,48c26.5,0,48-21.5,48-48C96,21.5,74.5,0,48,0z M48,92C23.7,92,4,72.3,4,48C4,23.7,23.7,4,48,4  c24.3,0,44,19.7,44,44C92,72.3,72.3,92,48,92z M58.7,51.9c-3.3,0-6,2.7-6,6c0,3.3,2.7,6,6,6s6-2.7,6-6C64.7,54.6,62,51.9,58.7,51.9z   M58.7,59.9c-1.1,0-2-0.9-2-2c0-1.1,0.9-2,2-2c1.1,0,2,0.9,2,2C60.7,59,59.8,59.9,58.7,59.9z"/></svg>